<svg xmlns="http://www.w3.org/2000/svg" width="29.238" height="36.021" viewBox="0 0 29.238 36.021">
  <path id="Icon_simple-apple" data-name="Icon simple-apple" d="M10.617,35.325A8.067,8.067,0,0,1,8.751,33.6a23.137,23.137,0,0,1-1.6-2.181,21.1,21.1,0,0,1-2.67-5.454A20.508,20.508,0,0,1,3.37,19.445a12.12,12.12,0,0,1,1.5-6.135,8.671,8.671,0,0,1,3.15-3.273,8.4,8.4,0,0,1,4.26-1.26A7.034,7.034,0,0,1,13.979,9c.435.12.96.315,1.6.555.825.315,1.275.51,1.425.555a3.514,3.514,0,0,0,1.2.255,3.59,3.59,0,0,0,.968-.195c.218-.075.63-.21,1.215-.465.579-.21,1.038-.39,1.4-.525a12.518,12.518,0,0,1,1.575-.39,7.434,7.434,0,0,1,1.722-.075,10.215,10.215,0,0,1,2.91.63,7.85,7.85,0,0,1,3.685,2.94,7.382,7.382,0,0,0-1.087.825,9.184,9.184,0,0,0-1.845,2.257,7.649,7.649,0,0,0-.966,3.78,7.741,7.741,0,0,0,1.26,4.29,8,8,0,0,0,2.3,2.3,5.9,5.9,0,0,0,1.26.675c-.18.563-.378,1.11-.607,1.65a21.283,21.283,0,0,1-1.875,3.465c-.648.945-1.158,1.65-1.545,2.115a8.363,8.363,0,0,1-1.77,1.646,3.94,3.94,0,0,1-2.178.654,4.829,4.829,0,0,1-1.551-.19c-.435-.143-.864-.3-1.284-.485a10.41,10.41,0,0,0-1.358-.51,6.779,6.779,0,0,0-1.746-.221,7,7,0,0,0-1.74.217,10.81,10.81,0,0,0-1.361.487c-.63.263-1.042.435-1.283.51a6.706,6.706,0,0,1-1.485.263,4.124,4.124,0,0,1-2.229-.675ZM20.9,7.635a5.586,5.586,0,0,1-2.959.654,6.015,6.015,0,0,1,.405-3.056,8.26,8.26,0,0,1,1.5-2.52A8.113,8.113,0,0,1,22.288.824,6.956,6.956,0,0,1,25.124,0,6.819,6.819,0,0,1,24.749,3.1a8.907,8.907,0,0,1-1.5,2.64,7.567,7.567,0,0,1-2.379,1.89Z" transform="translate(-3.37 0.001)" fill="#f6a456"/>
</svg>
