<svg xmlns="http://www.w3.org/2000/svg" xmlns:xlink="http://www.w3.org/1999/xlink" width="2099.834" height="1211.015" viewBox="0 0 2099.834 1211.015">
  <defs>
    <linearGradient id="linear-gradient" x1="0.5" y1="1.112" x2="0.5" y2="-0.113" gradientUnits="objectBoundingBox">
      <stop offset="0" stop-color="#366db4"/>
      <stop offset="1" stop-color="#4085d6"/>
    </linearGradient>
    <filter id="Soustraction_76" x="0" y="0" width="2099.834" height="1211.015" filterUnits="userSpaceOnUse">
      <feOffset dy="10" input="SourceAlpha"/>
      <feGaussianBlur stdDeviation="30" result="blur"/>
      <feFlood flood-color="#366db4" flood-opacity="0.314"/>
      <feComposite operator="in" in2="blur"/>
      <feComposite in="SourceGraphic"/>
    </filter>
    <linearGradient id="linear-gradient-2" x1="0.21" y1="0" x2="0.695" y2="1" xlink:href="#linear-gradient"/>
    <filter id="Tracé_20" x="0.5" y="39.637" width="2099.332" height="1108.102" filterUnits="userSpaceOnUse">
      <feOffset dy="10" input="SourceAlpha"/>
      <feGaussianBlur stdDeviation="30" result="blur-2"/>
      <feFlood flood-color="#366db4" flood-opacity="0.314"/>
      <feComposite operator="in" in2="blur-2"/>
      <feComposite in="SourceGraphic"/>
    </filter>
  </defs>
  <g id="Groupe_471" data-name="Groupe 471" transform="translate(90.5 -856.888)">
    <g transform="matrix(1, 0, 0, 1, -90.5, 856.89)" filter="url(#Soustraction_76)">
      <path id="Soustraction_76-2" data-name="Soustraction 76" d="M19952,1380.9c-82.441,0-150.348-27.092-216.018-53.291-13.639-5.441-27.742-11.068-41.6-16.282-15.494-5.832-29.143-10.561-41.727-14.458-53.027-16.416-109.434-27.772-172.443-34.718-29.238-3.223-59.736-5.51-93.242-6.99-30.58-1.351-63.279-2.008-99.971-2.008-30.518,0-60.373.932-88.736,2.77-25.785,1.671-50.922,4.128-74.709,7.3-40.061,5.348-77.08,12.8-110.033,22.162-12.945,3.676-25.287,7.658-36.684,11.836-9.111,3.341-17.645,6.815-25.363,10.325-13.121,5.969-19.418,10.035-19.477,10.073,1.227-72.857,1.74-145.915,1.521-217.146-.18-58.693-.842-117.217-2.021-178.915V506.315a185.342,185.342,0,0,1,6.961-27.972,105.157,105.157,0,0,1,10.15-21.87,76.762,76.762,0,0,1,13.82-16.623,82.15,82.15,0,0,1,17.967-12.231c12.766-6.522,28.744-11.193,50.285-14.7,21.51-3.5,47.609-5.618,72.609-7.382,7.1-.5,14.584-.755,22.258-.755,55.512,0,118.039,12.938,184.238,26.636l1.637.339,8.34,1.724c35.527,7.334,70.363,14.362,105.979,19.734,19.174,2.891,36.693,5.019,53.564,6.5,18.6,1.637,36.543,2.467,53.324,2.467,6.5,0,12.977-.124,19.248-.367,9.545-.371,19.395-1.1,29.273-2.176,9.424-1.023,19.188-2.39,29.02-4.062,18.152-3.088,36.943-7.247,57.445-12.715,17.086-4.558,35.711-10.136,56.938-17.054,18.871-6.15,38.047-12.779,56.59-19.19l.182-.062c20.08-6.943,40.844-14.123,61.432-20.769,23.066-7.446,43.367-13.385,62.063-18.156a610.831,610.831,0,0,1,63.121-12.861c10.861-1.586,21.658-2.8,32.094-3.606,10.953-.847,21.895-1.277,32.518-1.277,1.813,0,3.645.012,5.445.037,23.078.315,45.287,1.044,66.014,2.167,19.74,1.069,38.793,2.531,56.627,4.345,16.844,1.714,33.182,3.8,48.561,6.206,14.359,2.244,28.428,4.851,41.818,7.747,12.463,2.7,24.367,5.63,36.395,8.97,10.711,2.974,21.275,6.2,32.3,9.874,20.473,6.818,39.336,14.122,57.58,21.186,13.664,5.29,27.793,10.76,42.383,15.937,16.334,5.8,31.57,10.616,46.578,14.735,17.99,4.938,36.07,9.01,55.275,12.448,21.527,3.854,43.926,6.823,68.475,9.076,37.6,3.452,72.168,5.2,102.758,5.2,32.467,0,61.006-1.963,84.826-5.834,19.055-3.1,35.15-7.415,47.838-12.835a93.9,93.9,0,0,0,13.266-6.855,53.626,53.626,0,0,0,7.883-5.98,21.269,21.269,0,0,0,4.76-5.83l0,0,0,887.144c-.072-.029-8.33-3.391-23.582-8.241-9.029-2.872-18.752-5.714-28.895-8.447-12.682-3.418-26.064-6.675-39.777-9.683a1096.885,1096.885,0,0,0-110.652-18.13c-22.867-2.6-46.451-4.608-70.1-5.975-26.006-1.5-52.729-2.266-79.424-2.266-13.174,0-26.277.41-38.947,1.219-12.092.772-24.2,1.935-35.973,3.454a549.036,549.036,0,0,0-64.85,12.383c-18.268,4.615-37.381,10.383-58.436,17.635-18.822,6.483-37.557,13.573-55.676,20.43C20165.914,1349.944,20084.109,1380.9,19952,1380.9Z" transform="translate(-18841.5 -269.89)" fill="url(#linear-gradient)"/>
    </g>
    <g transform="matrix(1, 0, 0, 1, -90.5, 856.89)" filter="url(#Tracé_20)">
      <path id="Tracé_20-2" data-name="Tracé 20" d="M-21387-11109.21s296.352-160.793,482.576-155.674,368.629,115.7,556.939,116.322,241.783-108.2,513.672-116.322,366.145,155.674,366.145,155.674v772.135s-281.391-97.055-537.332-97.055-230.713,97.055-486.434,97.055-312.555-97.055-536.447-97.055-359.119,97.055-359.119,97.055Z" transform="translate(21477.5 11384.81)" fill="url(#linear-gradient-2)"/>
    </g>
  </g>
</svg>
