<svg xmlns="http://www.w3.org/2000/svg" xmlns:xlink="http://www.w3.org/1999/xlink" width="2100.002" height="1503.146" viewBox="0 0 2100.002 1503.146">
  <defs>
    <linearGradient id="linear-gradient" x1="0.21" y1="1" x2="0.695" gradientUnits="objectBoundingBox">
      <stop offset="0" stop-color="#366db4"/>
      <stop offset="1" stop-color="#4085d6"/>
    </linearGradient>
    <filter id="Soustraction_77" x="0" y="0" width="2100.002" height="1503.146" filterUnits="userSpaceOnUse">
      <feOffset dy="10" input="SourceAlpha"/>
      <feGaussianBlur stdDeviation="30" result="blur"/>
      <feFlood flood-color="#366db4" flood-opacity="0.314"/>
      <feComposite operator="in" in2="blur"/>
      <feComposite in="SourceGraphic"/>
    </filter>
    <linearGradient id="linear-gradient-2" x1="0.256" y1="-0.035" x2="0.844" y2="1" xlink:href="#linear-gradient"/>
    <filter id="Background">
      <feOffset dy="10" input="SourceAlpha"/>
      <feGaussianBlur stdDeviation="30" result="blur-2"/>
      <feFlood flood-color="#366db4" flood-opacity="0.31" result="color"/>
      <feComposite operator="out" in="SourceGraphic" in2="blur-2"/>
      <feComposite operator="in" in="color"/>
      <feComposite operator="in" in2="SourceGraphic"/>
    </filter>
  </defs>
  <g id="Groupe_473" data-name="Groupe 473" transform="translate(90.002 -3658.652)">
    <g transform="matrix(1, 0, 0, 1, -90, 3658.65)" filter="url(#Soustraction_77)">
      <path id="Soustraction_77-2" data-name="Soustraction 77" d="M19167.713,1622.146h-.045c-15.479,0-31.211-.527-46.762-1.564-14.875-.992-29.975-2.478-44.879-4.416a752.366,752.366,0,0,1-83.486-15.759,803.443,803.443,0,0,1-137.5-47.815c-17.535-7.928-34.867-16.52-51.514-25.536-13.311-7.21-26.211-14.705-38.344-22.276-20.406-12.733-31.711-21.371-32.182-21.732l0-1038.239a204.67,204.67,0,0,1,12.85-18.375c5-6.5,10.453-13.032,16.205-19.406,7.193-7.973,14.881-15.729,22.85-23.052a338.012,338.012,0,0,1,66-47.542,315.672,315.672,0,0,1,93.705-33.625c6.822-1.286,13.732-2.259,20.539-2.89,6.572-.609,13.244-.918,19.828-.918,6.789,0,13.711.328,20.574.974,6.541.616,13.246,1.543,19.928,2.753a289.206,289.206,0,0,1,38.289,9.824c24.945,8.127,49.287,19.134,72.828,29.778l.012.005c11.7,5.29,23.795,10.761,35.834,15.815,13.479,5.658,25.422,10.168,36.51,13.787a286.516,286.516,0,0,0,37.9,9.747c6.607,1.2,13.234,2.119,19.693,2.73,6.777.641,13.609.966,20.307.966,30.715,0,57.1-.637,80.674-1.946,21-1.166,39.27-2.845,55.848-5.13,13.811-1.9,26.664-4.277,39.295-7.253,11.262-2.655,21.307-5.532,31.02-8.315l.027-.008c9.713-2.782,19.754-5.659,31.012-8.312,12.641-2.979,25.506-5.353,39.33-7.258,16.6-2.287,34.883-3.967,55.91-5.134,23.6-1.31,50.023-1.948,80.775-1.948,11.283,0,23.252.535,36.582,1.637,11.977.99,24.871,2.424,39.416,4.385,27.17,3.664,55.992,8.616,86.51,13.859l.021,0c75.242,12.928,160.523,27.582,250.5,27.582,19.873,0,39.535-.728,58.439-2.163,52.326-3.974,105.959-11.727,157.826-19.224h.008c36.07-5.214,70.143-10.139,103.838-13.9,18.1-2.019,34.324-3.5,49.594-4.528,17.1-1.151,32.6-1.71,47.408-1.71,11.561,0,22.717.358,33.164,1.064,10.988.743,21.6,1.9,31.533,3.432a286.339,286.339,0,0,1,29.711,6.157,228.061,228.061,0,0,1,27.7,9.242V1395.907c-.105.294-.162.446-.164.447-.033.088-3.67,9.163-12.9,22.717a215.084,215.084,0,0,1-18.43,23.286,248.254,248.254,0,0,1-28.459,26.693c-26.311,21.1-57.646,37.92-93.143,49.98-10.258,3.485-21.008,6.614-31.951,9.3-11.52,2.827-23.562,5.24-35.8,7.171-12.834,2.026-26.238,3.578-39.84,4.615-14.217,1.084-29.047,1.633-44.074,1.634-9.7,0-19.7-.229-29.725-.68-28.08-1.264-54.889-3.209-79.678-5.781-22.229-2.307-43.1-5.114-63.8-8.581-38.27-6.408-68.781-13.89-98.289-21.125l-.014,0c-29.08-7.13-56.551-13.864-88.619-18.848-17.166-2.668-34.25-4.619-52.225-5.966-20-1.5-40.738-2.227-63.395-2.227-14.357,0-29.629.306-45.391.91-16.381.627-33.877,1.6-52.008,2.887-17.035,1.211-33.861,2.813-50.008,4.764-15.361,1.856-30.613,4.088-45.336,6.634-27.094,4.686-52.971,10.484-79.109,17.724-48.418,13.413-89.48,29.582-129.191,45.219l-.006,0-.02.008c-21.066,8.3-40.965,16.13-61.961,23.618-11.293,4.027-21.791,7.555-32.1,10.787-11.551,3.621-22.59,6.787-33.748,9.68a638.206,638.206,0,0,1-75.148,14.766c-13.869,1.881-28.256,3.379-42.76,4.451-15.182,1.123-31.037,1.82-47.125,2.073C19174.908,1622.118,19171.352,1622.146,19167.713,1622.146Z" transform="translate(-18643 -219)" fill="url(#linear-gradient)"/>
    </g>
    <g data-type="innerShadowGroup">
      <path id="Background-2" data-name="Background" d="M0,0S262.514-134.3,500.136-141.812,809.488-10.9,950.49-30.037c181-24.56,262.093-119.285,504.218-111.775S1917.981.093,1917.981.093L1918.99,1001s-177.906,92.506-415.781,85.5S1145.563,962.989,967.491,972.985c-160.96,9.036-353.078,101.169-517.1,101.169C105.069,1074.154,0,1001,0,1001Z" transform="translate(1.01 3907.31)" fill="url(#linear-gradient-2)"/>
      <g transform="matrix(1, 0, 0, 1, -90, 3658.65)" filter="url(#Background)">
        <path id="Background-3" data-name="Background" d="M0,0S262.514-134.3,500.136-141.812,809.488-10.9,950.49-30.037c181-24.56,262.093-119.285,504.218-111.775S1917.981.093,1917.981.093L1918.99,1001s-177.906,92.506-415.781,85.5S1145.563,962.989,967.491,972.985c-160.96,9.036-353.078,101.169-517.1,101.169C105.069,1074.154,0,1001,0,1001Z" transform="translate(91.01 248.66)" fill="#fff"/>
      </g>
    </g>
  </g>
</svg>
