<svg xmlns="http://www.w3.org/2000/svg" xmlns:xlink="http://www.w3.org/1999/xlink" width="1920.002" height="812.336" viewBox="0 0 1920.002 812.336">
  <defs>
    <linearGradient id="linear-gradient" x1="0.5" y1="1" x2="0.5" gradientUnits="objectBoundingBox">
      <stop offset="0" stop-color="#4085d6"/>
      <stop offset="1" stop-color="#276dc4"/>
    </linearGradient>
    <linearGradient id="linear-gradient-2" y1="0" y2="1" xlink:href="#linear-gradient"/>
  </defs>
  <g id="Groupe_475" data-name="Groupe 475" transform="translate(0.001 -7923.546)">
    <path id="Soustraction_31" data-name="Soustraction 31" d="M11368.5,806.273V443.831c43.513-.439,78.734-9.664,104.688-27.42,19.2-13.136,35.042-27.934,49.018-40.99l.011-.01c11.973-11.183,23.281-21.746,34.6-29.262,12.523-8.317,23.948-12.19,35.956-12.19,13.13,0,27.188,4.72,42.981,14.43,9.408,5.784,19.131,11.12,29.425,16.769,33.148,18.191,67.425,37,87.888,70.155a117.5,117.5,0,0,1,6.992,13.129,121.31,121.31,0,0,1,5.51,14.628,133.882,133.882,0,0,1,3.851,16.286,157.077,157.077,0,0,1,2.012,18.1,192.581,192.581,0,0,1,0,20.08c-.36,7.1-1.1,14.574-2.2,22.215-1.126,7.833-2.665,16.079-4.573,24.51-1.952,8.625-4.35,17.7-7.125,26.963a236.856,236.856,0,0,1-8.012,22.735,156.184,156.184,0,0,1-8.937,18.275,106.7,106.7,0,0,1-9.785,14.255,78.774,78.774,0,0,1-10.555,10.676,64.661,64.661,0,0,1-23.114,12.375,87.256,87.256,0,0,1-25.266,3.342c-13.4,0-27.117-2.128-41.639-4.381l-.711-.11c-13.573-2.105-28.957-4.492-43.732-4.492-36.917,0-63.063,15.085-84.778,48.913a216.016,216.016,0,0,1-13.862,19.2A207.828,207.828,0,0,1,11439,775.393a229.387,229.387,0,0,1-35.147,18.735,261.968,261.968,0,0,1-35.352,12.145Z" transform="translate(-11368.502 7589.587)" fill="url(#linear-gradient)"/>
    <path id="Soustraction_30" data-name="Soustraction 30" d="M11251.1,924.11h0c-18.513,0-35.157-3.3-49.473-9.8a90.892,90.892,0,0,1-35.722-28.834,115.63,115.63,0,0,1-17.507-35.706c-4.192-13.838-6.627-29.54-7.237-46.672-1.271-35.663,5.229-77.591,19.315-124.62,28.119-93.875,76.977-94.44,128.7-95.038,44.18-.511,89.863-1.039,126.9-58.735A187.421,187.421,0,0,1,11430,505.717a172.759,172.759,0,0,1,15.2-15.98,165.988,165.988,0,0,1,33.254-23.847,180.64,180.64,0,0,1,35.417-14.575,213.4,213.4,0,0,1,35.623-7.156V838.915a204.573,204.573,0,0,0-65.911,29.472,310.317,310.317,0,0,1-32.249,19.677,166.275,166.275,0,0,1-27.5,11.389c-17.916,5.54-36.3,7.7-61.749,10.689-20.5,2.409-46.021,5.406-79.849,11.18A186.132,186.132,0,0,1,11251.1,924.11Z" transform="translate(-9629.5 7811.772)" fill="url(#linear-gradient-2)"/>
  </g>
</svg>
