<svg xmlns="http://www.w3.org/2000/svg" xmlns:xlink="http://www.w3.org/1999/xlink" width="2099.838" height="687.01" viewBox="0 0 2099.838 687.01">
  <defs>
    <linearGradient id="linear-gradient" x1="0.5" y1="1.112" x2="0.5" y2="-0.113" gradientUnits="objectBoundingBox">
      <stop offset="0" stop-color="#366db4"/>
      <stop offset="1" stop-color="#4085d6"/>
    </linearGradient>
    <filter id="Soustraction_3" x="0" y="0" width="2099.838" height="687.006" filterUnits="userSpaceOnUse">
      <feOffset dy="10" input="SourceAlpha"/>
      <feGaussianBlur stdDeviation="30" result="blur"/>
      <feFlood flood-color="#366db4" flood-opacity="0.314"/>
      <feComposite operator="in" in2="blur"/>
      <feComposite in="SourceGraphic"/>
    </filter>
    <linearGradient id="linear-gradient-2" x1="0.21" y1="0" x2="0.695" y2="1" xlink:href="#linear-gradient"/>
    <filter id="Soustraction_1" x="0.499" y="39.635" width="2099.333" height="647.375" filterUnits="userSpaceOnUse">
      <feOffset dy="10" input="SourceAlpha"/>
      <feGaussianBlur stdDeviation="30" result="blur-2"/>
      <feFlood flood-color="#366db4" flood-opacity="0.314"/>
      <feComposite operator="in" in2="blur-2"/>
      <feComposite in="SourceGraphic"/>
    </filter>
  </defs>
  <g id="Groupe_472" data-name="Groupe 472" transform="translate(89.84 -8787.99)">
    <g transform="matrix(1, 0, 0, 1, -89.84, 8787.99)" filter="url(#Soustraction_3)">
      <path id="Soustraction_3-2" data-name="Soustraction 3" d="M18241.332,922.5H16321.5V474.878a117.3,117.3,0,0,1,25.8-9.3,296.613,296.613,0,0,1,35.713-6.217c12.288-1.5,26.874-2.826,45.9-4.171,5.9-.413,12.2-.623,18.738-.623a438.858,438.858,0,0,1,47.561,2.88c15.887,1.727,33.293,4.225,53.213,7.636,36.961,6.334,76,14.686,117.322,23.528l.045.01.266.057,1.721.366c3.277.7,6.494,1.393,9.8,2.1,43.8,9.359,86.6,18.326,128.486,25.151,22.629,3.685,42.846,6.4,61.8,8.286,20.9,2.087,40.4,3.145,57.947,3.145,5.5,0,10.9-.1,16.055-.3,9.555-.371,19.4-1.1,29.277-2.179,9.375-1.016,19.139-2.382,29.02-4.06,18.2-3.1,36.986-7.257,57.445-12.718,17.041-4.543,35.666-10.121,56.936-17.053,19.014-6.2,38.191-12.828,56.738-19.241l.033-.009.027-.014c20.066-6.938,40.818-14.111,61.4-20.756,23.066-7.447,43.367-13.386,62.064-18.156a610.935,610.935,0,0,1,63.125-12.864c10.869-1.586,21.666-2.8,32.092-3.6,10.9-.847,21.838-1.277,32.518-1.277,2.043,0,3.771.011,5.443.036,23.1.316,45.3,1.045,66.014,2.166,19.775,1.073,38.826,2.535,56.625,4.344,16.871,1.72,33.207,3.808,48.559,6.208,14.313,2.235,28.383,4.841,41.82,7.746,12.447,2.691,24.354,5.624,36.395,8.968,10.686,2.969,21.25,6.2,32.3,9.875,20.545,6.842,39.373,14.135,57.582,21.187l.059.023c13.58,5.259,27.621,10.7,42.32,15.913,16.342,5.8,31.578,10.619,46.58,14.737,18.031,4.949,36.113,9.021,55.275,12.447,21.543,3.858,43.941,6.827,68.473,9.078,37.615,3.454,72.189,5.205,102.762,5.205,32.465,0,61-1.964,84.824-5.837,19.055-3.094,35.15-7.412,47.84-12.832a93.211,93.211,0,0,0,13.268-6.858,53.662,53.662,0,0,0,7.883-5.979c3.545-3.315,4.641-5.58,4.756-5.828l.006,0Z" transform="translate(-16231.5 -335.49)" fill="url(#linear-gradient)"/>
    </g>
    <g transform="matrix(1, 0, 0, 1, -89.84, 8787.99)" filter="url(#Soustraction_1)">
      <path id="Soustraction_1-2" data-name="Soustraction 1" d="M18284.332,766.374H16365V454.967l.011-.006c.757-.41,18.887-10.2,47.771-24.337,17.314-8.476,35.115-16.871,52.912-24.951,22.236-10.1,44.51-19.72,66.2-28.6,55.217-22.613,107.064-40.631,154.1-53.555a784.3,784.3,0,0,1,78.814-17.649c13.1-2.171,25.84-3.835,37.861-4.945,12.568-1.161,24.705-1.75,36.072-1.75,2.971,0,5.941.04,8.83.12,11.063.3,22.52,1,34.055,2.067,11,1.018,22.43,2.407,33.982,4.13,21.322,3.18,43.5,7.522,67.8,13.274,20.246,4.792,42.381,10.679,67.672,18,22.535,6.523,45.453,13.56,67.613,20.365l.035.011.035.011c23.246,7.138,47.283,14.519,70.967,21.334,26.576,7.647,49.871,13.753,71.215,18.666,25.615,5.895,49.02,10.239,71.551,13.28,12.209,1.648,24.3,2.917,35.939,3.774,12.211.9,24.346,1.374,36.07,1.413.529,0,1.076,0,1.6,0,10.563,0,21.068-.353,31.225-1.049,9.723-.666,19.465-1.67,28.957-2.984a422.041,422.041,0,0,0,52.732-10.8c33.4-9.028,63.9-21.228,96.182-34.144l.045-.018c18.566-7.427,37.762-15.106,58.277-22.472,23.191-8.327,44.961-15.109,66.553-20.733,12.486-3.252,25.254-6.2,37.949-8.765,13.645-2.755,27.744-5.176,41.91-7.194,15.045-2.143,30.689-3.908,46.5-5.245,16.662-1.409,34.068-2.391,51.736-2.92,6.5-.194,13.039-.293,19.432-.293,15.652,0,31.211.589,46.244,1.752,14.377,1.112,28.654,2.777,42.436,4.95,13.141,2.072,26.176,4.66,38.744,7.692,11.943,2.881,23.773,6.238,35.164,9.976,39.414,12.936,75.461,30.974,107.137,53.614a346.177,346.177,0,0,1,35.045,28.635,303.047,303.047,0,0,1,23.906,24.979c12.314,14.489,17.984,24.278,18.035,24.37V766.374l0,0h0v0Z" transform="translate(-16274.5 -179.36)" fill="url(#linear-gradient-2)"/>
    </g>
  </g>
</svg>
