<svg id="Groupe_232" data-name="Groupe 232" xmlns="http://www.w3.org/2000/svg" width="706" height="497.534" viewBox="0 0 706 497.534">
  <circle id="Ellipse_5" data-name="Ellipse 5" cx="38.448" cy="38.448" r="38.448" transform="translate(322.121 419.584)" fill="#f7ec6f"/>
  <path id="Tracé_70" data-name="Tracé 70" d="M788.222,654.388c21.51-6.46,44.377-13.2,61.436-28.553,15.243-13.723,25.535-34.678,19.22-55.258-6.3-20.538-25.179-34.232-44.668-41.043-11.054-3.863-22.618-6.006-34.178-7.69-12.566-1.83-25.189-3.33-37.8-4.773Q675.6,508.308,598.4,506.364c-25.4-.64-50.788-.624-76.187-.256-22.684.329-46.574.321-67.617-9.32-16.364-7.5-31.216-21.137-35.776-39.061-5.263-20.691,4.445-41.761,18.371-56.746,7.341-7.9,15.92-14.547,24.771-20.659,9.6-6.632,19.538-12.794,29.689-18.545a413.431,413.431,0,0,1,62.492-28.81c10.653-3.874,21.464-7.215,32.369-10.3a276.979,276.979,0,0,0,27.345-8.757c17.2-6.857,33.568-18.472,37.942-37.513,4.146-18.047-2.844-37.638-15.1-51.044-14.178-15.51-35.556-22.31-56.05-23.41-23.009-1.235-45.488,4.523-67.114,11.832-23.066,7.795-45.635,16.758-69.188,23.071a465.518,465.518,0,0,1-71.209,13.237c-11.77,1.253-23.9,2.669-35.737,1.709-9.923-.8-19.8-3.723-27.109-10.765-6.271-6.039-10.006-14.338-8.722-23.1.233-1.591,2.65-.914,2.418.667-1.563,10.661,5.684,20.485,14.614,25.517,10.321,5.816,22.88,5.824,34.371,5.159a449.536,449.536,0,0,0,73.983-10.695c23.9-5.458,46.943-13.261,69.962-21.6,21.862-7.917,44.212-15.643,67.568-17.358,20.266-1.488,41.584,1.465,59.238,12.055a65.533,65.533,0,0,1,30.562,42.642c3.553,17.406-1.368,34.925-14.543,47.071-13.642,12.576-32.347,17.953-49.779,22.9-22.109,6.281-43.745,13.622-64.686,23.155a406.069,406.069,0,0,0-60.848,34.209c-18.594,12.706-36.944,28.694-42.825,51.362a47.316,47.316,0,0,0,2.35,31.732,57.988,57.988,0,0,0,18.607,22.081c18.656,13.728,42.17,16.547,64.7,16.827,25.31.315,50.621-.539,75.939-.124q77.4,1.27,154.476,9.422,19.314,2.044,38.58,4.519c11.552,1.484,23.144,2.959,34.5,5.6,20.2,4.688,39.847,13.7,52.4,30.824a48.741,48.741,0,0,1,4.151,53.3c-9.639,18.965-27.694,31.028-46.867,38.953-10.27,4.245-20.922,7.461-31.554,10.653a1.255,1.255,0,0,1-.667-2.418Z" transform="translate(-197.963 -160.068)" fill="#f2f2f2"/>
  <circle id="Ellipse_6" data-name="Ellipse 6" cx="20.06" cy="20.06" r="20.06" transform="translate(85.164 38.03)" fill="#f2f2f2"/>
  <circle id="Ellipse_7" data-name="Ellipse 7" cx="20.06" cy="20.06" r="20.06" transform="translate(224.329 76.06)" fill="#f2f2f2"/>
  <circle id="Ellipse_8" data-name="Ellipse 8" cx="20.06" cy="20.06" r="20.06" transform="translate(342.18)" fill="#f2f2f2"/>
  <circle id="Ellipse_9" data-name="Ellipse 9" cx="20.06" cy="20.06" r="20.06" transform="translate(415.733 85.254)" fill="#f2f2f2"/>
  <circle id="Ellipse_10" data-name="Ellipse 10" cx="20.06" cy="20.06" r="20.06" transform="translate(316.27 183.881)" fill="#f2f2f2"/>
  <circle id="Ellipse_11" data-name="Ellipse 11" cx="20.06" cy="20.06" r="20.06" transform="translate(190.06 231.523)" fill="#f2f2f2"/>
  <circle id="Ellipse_12" data-name="Ellipse 12" cx="20.06" cy="20.06" r="20.06" transform="translate(323.792 305.912)" fill="#f2f2f2"/>
  <circle id="Ellipse_13" data-name="Ellipse 13" cx="20.06" cy="20.06" r="20.06" transform="translate(467.554 347.703)" fill="#f2f2f2"/>
  <circle id="Ellipse_14" data-name="Ellipse 14" cx="20.06" cy="20.06" r="20.06" transform="translate(635.555 338.509)" fill="#f2f2f2"/>
  <path id="Tracé_71" data-name="Tracé 71" d="M582.491,220.372C522.4,220.8,473.2,269.627,472.348,329.711c-.008.555-.012,4.455-.011,9.557a28.207,28.207,0,0,0,28.2,28.206h0a28.223,28.223,0,0,0,28.218-28.243c0-3.477,0-5.879,0-6.026A53.493,53.493,0,1,1,611.1,378.239l.01.012s-40.143,25.843-52.382,61.3l.01,0a78.57,78.57,0,0,0-3.238,22.373c0,3.114.183,30.358.537,52.471A29.075,29.075,0,0,0,585.117,543h0A29.083,29.083,0,0,0,614.2,513.734c-.123-20.251-.189-43.832-.189-45.543,0-21.769,21-43.458,38.25-57.6a116.016,116.016,0,0,0,39.9-63.522,72.524,72.524,0,0,0,2.089-15.741A110.956,110.956,0,0,0,582.491,220.372Z" transform="translate(-226.041 -163.533)" fill="#f7ec6f"/>
  <path id="Tracé_72" data-name="Tracé 72" d="M882.667,747.24H178.658a1,1,0,1,1,0-1.99h704.01a1,1,0,0,1,0,1.99Z" transform="translate(-177.662 -249.706)" fill="#3f3d56"/>
  <circle id="Ellipse_15" data-name="Ellipse 15" cx="25.075" cy="25.075" r="25.075" transform="translate(500.198 178.027)" fill="#2f2e41"/>
  <path id="Tracé_73" data-name="Tracé 73" d="M570.042,574.366H559.8l-4.875-39.525h15.124Z" transform="translate(-91.104 -87.808)" fill="#a0616a"/>
  <path id="Tracé_74" data-name="Tracé 74" d="M549.551,578.626h19.762v12.443h-32.2A12.443,12.443,0,0,1,549.551,578.626Z" transform="translate(-88.18 -94.996)" fill="#2f2e41"/>
  <path id="Tracé_75" data-name="Tracé 75" d="M665.042,574.366H654.8l-4.875-39.525h15.124Z" transform="translate(-106.701 -87.808)" fill="#a0616a"/>
  <path id="Tracé_76" data-name="Tracé 76" d="M644.551,578.626h19.762v12.443h-32.2A12.443,12.443,0,0,1,644.551,578.626Z" transform="translate(-103.777 -94.996)" fill="#2f2e41"/>
  <circle id="Ellipse_16" data-name="Ellipse 16" cx="20.529" cy="20.529" r="20.529" transform="translate(500.933 187.266)" fill="#a0616a"/>
  <path id="Tracé_77" data-name="Tracé 77" d="M801.774,493.268l9.185-21.1a26.23,26.23,0,0,0-5.809-29.755,26.631,26.631,0,0,0-2.566-2.232,25.856,25.856,0,0,0-15.872-5.491,26.9,26.9,0,0,0-11.2,2.491c-.3.134-.594.276-.895.418-.577.276-1.145.577-1.7.886A26.477,26.477,0,0,0,759.8,458.439l-4.054,33.968c-1.02,2.666-37.395,98.953-24.673,172.464a3.734,3.734,0,0,0,3.193,3.067l12.9,1.755a3.758,3.758,0,0,0,4.187-2.95l21.64-103.149a2.928,2.928,0,0,1,5.683-.192l30.575,108.473a3.737,3.737,0,0,0,3.6,2.742,4.279,4.279,0,0,0,.727-.067l15.755-3.034a3.737,3.737,0,0,0,3.034-4.02C830.05,641.677,817.747,512.35,801.774,493.268Z" transform="translate(-268.076 -198.719)" fill="#2f2e41"/>
  <path id="Tracé_78" data-name="Tracé 78" d="M706.09,419.941a8.4,8.4,0,0,0,8.855,9.364l11.475,27.576,8.68-12.867L722.873,419.8a8.45,8.45,0,0,0-16.782.141Z" transform="translate(-264.408 -195.063)" fill="#a0616a"/>
  <path id="Tracé_79" data-name="Tracé 79" d="M798.323,531.352a8.4,8.4,0,0,0,7.043-10.793l24.143-17.584-14.535-5.443-20.7,17.533a8.45,8.45,0,0,0,4.047,16.288Z" transform="translate(-277.999 -209.037)" fill="#a0616a"/>
  <path id="Tracé_80" data-name="Tracé 80" d="M747.273,479.53a14.257,14.257,0,0,1-2.757-.272,13.628,13.628,0,0,1-9.986-8.037l-16.077-19.6a3.762,3.762,0,0,1,.929-5.584l11.438-7.08a3.761,3.761,0,0,1,5.195,1.246l11.331,18.667,21.7-16.037a8.125,8.125,0,0,1,9.453,13.007l-21.658,19.756A13.584,13.584,0,0,1,747.273,479.53Z" transform="translate(-266.307 -199.327)" fill="#2f2e41"/>
  <path id="Tracé_81" data-name="Tracé 81" d="M820.516,510.215h-.088a3.768,3.768,0,0,1-2.767-1.312l-10.169-11.863a3.761,3.761,0,0,1,.769-5.577L827.3,478.767l-17.25-20.739a8.125,8.125,0,0,1,12.443-10.183l20.965,20.488a13.812,13.812,0,0,1-3.072,22.517l-17.135,18.182a3.768,3.768,0,0,1-2.737,1.181Z" transform="translate(-280.916 -200.531)" fill="#2f2e41"/>
  <path id="Tracé_82" data-name="Tracé 82" d="M793.076,464.279a3.873,3.873,0,0,1-.488-.031,3.729,3.729,0,0,1-3.1-2.565l-7.641-23.428a2.576,2.576,0,0,1,1.332-3.113l.248-.117c.225-.107.448-.213.675-.314a27.226,27.226,0,0,1,11.37-2.527,26.183,26.183,0,0,1,14.344,4.31,2.616,2.616,0,0,1,.753,3.589l-14.335,22.457a3.724,3.724,0,0,1-3.157,1.738Z" transform="translate(-276.834 -198.308)" fill="#e6e6e6"/>
  <circle id="Ellipse_17" data-name="Ellipse 17" cx="8.205" cy="8.205" r="8.205" transform="translate(536.837 175.498)" fill="#2f2e41"/>
  <path id="Tracé_83" data-name="Tracé 83" d="M791.843,361.365h0A21.731,21.731,0,0,0,770.111,383.1v9.194h11.308l5.408-9.194,1.623,9.194h34.318l-9.194-9.194a21.731,21.731,0,0,0-21.731-21.731Z" transform="translate(-274.928 -186.681)" fill="#2f2e41"/>
  <path id="Tracé_84" data-name="Tracé 84" d="M834.809,363.7a12.663,12.663,0,0,1,13.775-8.689c5.229.874,9.363,5.077,11.826,9.772s3.6,9.948,5.257,14.985,4,10.1,8.185,13.36,10.6,4.144,14.7.791a16.815,16.815,0,0,1-31.324,6c-2.166-3.855-2.726-8.372-3.368-12.747s-1.477-8.9-4.064-12.488-7.429-5.928-11.537-4.295Z" transform="translate(-285.55 -185.619)" fill="#2f2e41"/>
  <path id="Tracé_85" data-name="Tracé 85" d="M508.427,363.154h0a28.207,28.207,0,0,1-28.2-28.2c0-5.1,0-9.005.011-9.56a109.916,109.916,0,0,1,12.837-50.073,110.164,110.164,0,0,0-21.2,63.446c-.008.555-.011,4.455-.011,9.557a28.207,28.207,0,0,0,28.2,28.206h0a28.228,28.228,0,0,0,27.154-20.553A28.1,28.1,0,0,1,508.427,363.154Z" transform="translate(-225.963 -172.554)" fill="#3f3d56"/>
  <path id="Tracé_86" data-name="Tracé 86" d="M597.916,288.84a53.5,53.5,0,0,1,46.521,74.734,53.49,53.49,0,1,0-89.789-55.988A53.385,53.385,0,0,1,597.916,288.84Z" transform="translate(-239.554 -172.569)" fill="#3f3d56"/>
  <path id="Tracé_87" data-name="Tracé 87" d="M609.338,568h0a29.077,29.077,0,0,1-29.078-28.61c-.354-22.106-.537-49.351-.537-52.465a78.57,78.57,0,0,1,3.238-22.373l-.01,0a79.435,79.435,0,0,1,4.592-10.616,91.982,91.982,0,0,0-12.95,23.989l.01,0a78.568,78.568,0,0,0-3.238,22.373c0,3.114.183,30.358.537,52.471a29.076,29.076,0,0,0,29.078,28.6h0A29.087,29.087,0,0,0,628.9,560.444,28.97,28.97,0,0,1,609.338,568Z" transform="translate(-242.299 -201.879)" fill="#3f3d56"/>
  <path id="Tracé_88" data-name="Tracé 88" d="M126.541,574.821h10.246l4.875-39.524H126.538Z" transform="translate(-20.774 -87.883)" fill="#ffb8b8"/>
  <path id="Tracé_89" data-name="Tracé 89" d="M0,0H32.2V12.443H12.443A12.443,12.443,0,0,1,0,0H0Z" transform="translate(135.773 496.453) rotate(179.997)" fill="#2f2e41"/>
  <path id="Tracé_90" data-name="Tracé 90" d="M82.541,574.821H92.787L97.662,535.3H82.538Z" transform="translate(-13.551 -87.883)" fill="#ffb8b8"/>
  <path id="Tracé_91" data-name="Tracé 91" d="M0,0H32.2V12.443H12.443A12.443,12.443,0,0,1,0,0H0Z" transform="translate(98.996 496.453) rotate(179.997)" fill="#2f2e41"/>
  <path id="Tracé_92" data-name="Tracé 92" d="M268.224,693.475l-10.009-.526a3.906,3.906,0,0,1-3.693-4.152l11.963-132.45,55.09,14.866,5.308-1.448-16.6,117.253a3.925,3.925,0,0,1-3.643,3.3l-10.79.5a3.907,3.907,0,0,1-4.122-4.008l1.955-70.373a1.3,1.3,0,0,0-2.577-.3l-18.854,74.232a3.883,3.883,0,0,1-3.819,3.114C268.365,693.481,268.295,693.48,268.224,693.475Z" transform="translate(-190.279 -218.693)" fill="#2f2e41"/>
  <circle id="Ellipse_18" data-name="Ellipse 18" cx="20.529" cy="20.529" r="20.529" transform="translate(87.077 188.226)" fill="#ffb8b8"/>
  <path id="Tracé_93" data-name="Tracé 93" d="M265.5,467.9l2.257,48.7.816,17.718a3.88,3.88,0,0,0,2.57,3.49l52.938,19.177a3.742,3.742,0,0,0,1.337.234,3.881,3.881,0,0,0,3.9-4l-2.17-87.567a30.867,30.867,0,0,0-25.7-29.82c-.512-.078-1.033-.156-1.554-.226a30.3,30.3,0,0,0-24.377,7.891A31.123,31.123,0,0,0,265.5,467.9Z" transform="translate(-192.078 -198.832)" fill="#ccc"/>
  <path id="Tracé_94" data-name="Tracé 94" d="M361.447,561.868a8.411,8.411,0,0,1-4.487-12.727L339.008,525.27l15.491-.959,14.672,22.815a8.451,8.451,0,0,1-7.725,14.741Z" transform="translate(-204.151 -213.433)" fill="#ffb8b8"/>
  <path id="Tracé_95" data-name="Tracé 95" d="M344.864,532.941a3.882,3.882,0,0,1-2.124-2.105L315.694,466.4a10.417,10.417,0,1,1,19.211-8.063l27.046,64.438a3.911,3.911,0,0,1-2.09,5.114l-12.007,5.039a3.879,3.879,0,0,1-2.99.014Z" transform="translate(-200.19 -201.553)" fill="#ccc"/>
  <path id="Tracé_96" data-name="Tracé 96" d="M298.417,535.931l25.977-49.739a4.077,4.077,0,0,1,5.5-1.725l37.705,19.692a4.077,4.077,0,0,1,1.725,5.5l-25.977,49.739a4.077,4.077,0,0,1-5.5,1.725l-37.705-19.692A4.077,4.077,0,0,1,298.417,535.931Z" transform="translate(-197.411 -206.816)" fill="#3f3d56"/>
  <path id="Tracé_97" data-name="Tracé 97" d="M311.906,514.967a8.411,8.411,0,0,0-12.97-3.728l-24.889-16.511L274,510.249l23.642,13.3a8.451,8.451,0,0,0,14.259-8.582Z" transform="translate(-193.479 -208.576)" fill="#ffb8b8"/>
  <path id="Tracé_98" data-name="Tracé 98" d="M275.784,510.137l-20.341-16.113a14.345,14.345,0,0,1-6.539-22.68l18.469-24.205a8.438,8.438,0,0,1,14.317,8.6l-14.613,23.9,21.476,10.186a3.906,3.906,0,0,1,1.628,5.616l-8.669,13.719a3.913,3.913,0,0,1-2.647,1.764l-.065.01A3.925,3.925,0,0,1,275.784,510.137Z" transform="translate(-188.826 -200.255)" fill="#ccc"/>
  <path id="Tracé_99" data-name="Tracé 99" d="M285.863,410.195a1.784,1.784,0,0,1,1.552-2.356,4.121,4.121,0,0,1,2.905,1.433,11.563,11.563,0,0,0,2.567,2.2,2.208,2.208,0,0,0,2.906-.525c.532-.9.167-2.1-.155-3.137a30.846,30.846,0,0,1-1.362-8.166c-.093-3.093.344-6.32,2.056-8.733,2.21-3.113,6.161-4.3,9.9-4.209s7.418,1.24,11.122,1.97c1.279.252,2.782.381,3.637-.61.909-1.054.575-2.759.189-4.182-1-3.692-2.069-7.51-4.4-10.491a15.8,15.8,0,0,0-10.081-5.675,24.187,24.187,0,0,0-11.252,1.277,30.171,30.171,0,0,0-14.78,10.3A24.436,24.436,0,0,0,276,397.343a22.289,22.289,0,0,0,8.263,14.087Z" transform="translate(-193.769 -187.694)" fill="#2f2e41"/>
  <path id="Tracé_100" data-name="Tracé 100" d="M593.019,723.412a38.443,38.443,0,0,1-14.268-59.752,38.446,38.446,0,1,0,52.3,55.552,38.422,38.422,0,0,1-38.029,4.2Z" transform="translate(-240.921 -236.311)" fill="#3f3d56"/>
</svg>
