<svg id="Groupe_233" data-name="Groupe 233" xmlns="http://www.w3.org/2000/svg" xmlns:xlink="http://www.w3.org/1999/xlink" width="706.307" height="507.855" viewBox="0 0 706.307 507.855">
  <defs>
    <linearGradient id="linear-gradient" x1="0.5" x2="0.5" y2="1" gradientUnits="objectBoundingBox">
      <stop offset="0" stop-color="#4b8bff"/>
      <stop offset="1" stop-color="#3a70d1"/>
    </linearGradient>
  </defs>
  <path id="Tracé_101" data-name="Tracé 101" d="M879.584,404.318l2.261-18.12a24.469,24.469,0,1,1,48.562,6.058l-2.26,18.12a3.291,3.291,0,0,1-3.669,2.855l-42.039-5.245A3.291,3.291,0,0,1,879.584,404.318Z" transform="translate(-272.904 -178.537)" fill="#2f2e41"/>
  <circle id="Ellipse_19" data-name="Ellipse 19" cx="17.94" cy="17.94" r="17.94" transform="translate(608.877 195.306)" fill="#ffb8b8"/>
  <path id="Tracé_102" data-name="Tracé 102" d="M875.044,388.17a19.378,19.378,0,0,1,21.6-16.811l3.624.452a19.378,19.378,0,0,1,16.811,21.6l-.045.362-7.659-.955-1.7-7.64-1.435,7.249-3.958-.494-.858-3.855-.724,3.658L875,388.533Z" transform="translate(-272.029 -179.777)" fill="#2f2e41"/>
  <path id="Tracé_103" data-name="Tracé 103" d="M795.695,474.529a8.264,8.264,0,0,0,12.349,2.84l16.294,9.545,8.216-8.487-23.2-13.156a8.309,8.309,0,0,0-13.659,9.259Z" transform="translate(-256.622 -197.288)" fill="#ffb8b8"/>
  <path id="Tracé_104" data-name="Tracé 104" d="M853.763,488.417c-12.019,0-33.169-5.38-34.34-5.681l-.37-.095,3.329-16.853,32.3,6.381,17.55-24.714,20.149-2.048-.562.74c-.262.345-26.235,34.535-30.277,40.271C860.526,487.865,857.612,488.417,853.763,488.417Z" transform="translate(-261.286 -194.024)" fill="#3f3d56"/>
  <path id="Tracé_105" data-name="Tracé 105" d="M862,550.382l-.481-.23c-.1-.049-10.314-5.016-15.6-14.712-5.264-9.651,19.378-50.589,21.1-53.43l.025-13,8.864-23.933,11.305-6.39-9.706,22.647Z" transform="translate(-266.303 -192.734)" fill="#3f3d56"/>
  <path id="Tracé_106" data-name="Tracé 106" d="M719.468,605.686h-10.8l-5.14-41.675h15.946Z" transform="translate(-135.094 -108.304)" fill="#ffb8b8"/>
  <path id="Tracé_107" data-name="Tracé 107" d="M847.114,759.506H812.275v-.441a13.56,13.56,0,0,1,13.559-13.56h21.28Z" transform="translate(-259.984 -251.65)" fill="#2f2e41"/>
  <path id="Tracé_108" data-name="Tracé 108" d="M860.206,594.46l-10.267,3.364-17.862-38,15.154-4.965Z" transform="translate(-159.779 -106.546)" fill="#ffb8b8"/>
  <path id="Tracé_109" data-name="Tracé 109" d="M994.833,746.246l-33.107,10.847-.137-.419a13.561,13.561,0,0,1,8.663-17.108h0l20.22-6.625Z" transform="translate(-288.526 -249.238)" fill="#2f2e41"/>
  <path id="Tracé_110" data-name="Tracé 110" d="M940.71,683.794l-30.8-51.42-26-54.937-23.4,48.527-9.295,62.851-32.6.453.128-.51,49.882-198.205L907.7,496.39l-1.778,25.787,1.059,1.506c8.825,12.537,17.95,25.5,12.717,39.472l14.836,44.053,32.841,73.353Z" transform="translate(-261.203 -202.693)" fill="#2f2e41"/>
  <path id="Tracé_111" data-name="Tracé 111" d="M880.424,521.709c-5.661,0-12.12-6.464-8.769-17.5l-.217-.157,8.048-35.557c-7.023-10.044,2.237-18.334,3.1-19.075l4.42-7.956,19.5-12.369,9.868,81.989-.146.14C909.108,518.043,885.172,521.709,880.424,521.709Z" transform="translate(-271.21 -190.892)" fill="#3ebee6"/>
  <path id="Tracé_112" data-name="Tracé 112" d="M927.786,539.273a9.6,9.6,0,0,1-2.3-.244c-.758-.19-1.986-1.156-3.884-7.334-7.543-24.56-16.45-98.46-9.979-105.692l.148-.166,10.624,1.771c.883-.652,5.517-3.887,9.794-3.324a6.49,6.49,0,0,1,4.441,2.625l.073.1,3.385,48.151,12.4,56.664-.3.135C951.465,532.283,935.982,539.273,927.786,539.273Z" transform="translate(-278.632 -189.956)" fill="#3f3d56"/>
  <path id="Tracé_113" data-name="Tracé 113" d="M921.263,535.783a8.264,8.264,0,0,0,7.807-9.981l15.552-10.712-4.2-11.039-21.751,15.436a8.309,8.309,0,0,0,2.6,16.3Z" transform="translate(-279.253 -205.285)" fill="#ffb8b8"/>
  <path id="Tracé_114" data-name="Tracé 114" d="M942.583,508.8,928.73,498.642,948.2,472.088,933.26,445.717l6.686-19.118.432.823c.2.384,20.158,38.4,23.639,44.493,3.622,6.337-20.175,35.357-21.19,36.589Z" transform="translate(-282.346 -190.413)" fill="#3f3d56"/>
  <path id="Tracé_115" data-name="Tracé 115" d="M524.964,661.028l-11.79-4.964-8.088-59.1H397.379l-8.767,58.863L378.064,661.1a2.5,2.5,0,0,0,1.12,4.745H523.993a2.5,2.5,0,0,0,.972-4.813Z" transform="translate(-176.339 -223.126)" fill="#e6e6e6"/>
  <path id="Tracé_116" data-name="Tracé 116" d="M668.869,586.469H139.783a10.482,10.482,0,0,1-10.459-10.482V501.379h550v74.608a10.482,10.482,0,0,1-10.459,10.482Z" transform="translate(-128.841 -204.772)" fill="#ccc"/>
  <path id="Tracé_117" data-name="Tracé 117" d="M679.766,466.149H128.726V146.916a12.651,12.651,0,0,1,12.636-12.636H667.129a12.651,12.651,0,0,1,12.637,12.636Z" transform="translate(-128.726 -134.28)" fill="#3f3d56"/>
  <path id="Tracé_118" data-name="Tracé 118" d="M652.361,448.485H167.144a9.753,9.753,0,0,1-9.742-9.742V172.7a9.753,9.753,0,0,1,9.742-9.742H652.361A9.753,9.753,0,0,1,662.1,172.7V438.744A9.752,9.752,0,0,1,652.361,448.485Z" transform="translate(-134.233 -139.787)" fill="#fff"/>
  <path id="Tracé_119" data-name="Tracé 119" d="M573.043,682.389H300.393a1.266,1.266,0,0,1-1.243-.916,1.235,1.235,0,0,1,1.194-1.551h272.6a1.305,1.305,0,0,1,1.306.964,1.235,1.235,0,0,1-1.2,1.5Z" transform="translate(-161.444 -239.057)" fill="#ccc"/>
  <rect id="Rectangle_69" data-name="Rectangle 69" width="117.153" height="89.502" transform="translate(395.795 66.181)" fill="#f2f2f2"/>
  <rect id="Rectangle_70" data-name="Rectangle 70" width="105.511" height="80.608" transform="translate(401.616 70.628)" fill="#fff"/>
  <path id="Tracé_120" data-name="Tracé 120" d="M693.226,282.35h.042A28.131,28.131,0,0,0,693.9,226.2a.641.641,0,0,0-.486.168.635.635,0,0,0-.207.465l-.615,54.863a.644.644,0,0,0,.637.65Z" transform="translate(-237.002 -151.932)" fill="#3f3d56"/>
  <path id="Tracé_121" data-name="Tracé 121" d="M664.246,237.433a.828.828,0,0,1,.581.248L683.714,257a.82.82,0,0,1,.235.586l-.294,26.252a.817.817,0,0,1-.267.6.83.83,0,0,1-.623.216,28.315,28.315,0,0,1-19.149-46.936.83.83,0,0,1,.6-.28Z" transform="translate(-230.084 -154.088)" fill="#e6e6e6"/>
  <path id="Tracé_122" data-name="Tracé 122" d="M685.664,225.927a.832.832,0,0,1,.565.231.817.817,0,0,1,.254.6l-.266,23.686a.825.825,0,0,1-1.414.567l-16.481-16.855a.826.826,0,0,1,.044-1.2,28.375,28.375,0,0,1,17.247-7.036Z" transform="translate(-232.297 -151.879)" fill="#f6a456"/>
  <path id="Tracé_123" data-name="Tracé 123" d="M676.932,308.561a5.053,5.053,0,1,1-5-5.109A5.053,5.053,0,0,1,676.932,308.561Z" transform="translate(-232.055 -166.765)" fill="#f6a456"/>
  <path id="Tracé_124" data-name="Tracé 124" d="M694.8,308.761a5.053,5.053,0,1,1-5-5.109A5.053,5.053,0,0,1,694.8,308.761Z" transform="translate(-235.485 -166.804)" fill="#3f3d56"/>
  <path id="Tracé_125" data-name="Tracé 125" d="M712.664,308.962a5.053,5.053,0,1,1-5-5.109A5.053,5.053,0,0,1,712.664,308.962Z" transform="translate(-238.916 -166.842)" fill="#e6e6e6"/>
  <rect id="Rectangle_71" data-name="Rectangle 71" width="117.153" height="89.502" transform="translate(394.562 169.769)" fill="#f2f2f2"/>
  <rect id="Rectangle_72" data-name="Rectangle 72" width="105.511" height="80.608" transform="translate(400.383 174.216)" fill="#fff"/>
  <circle id="Ellipse_20" data-name="Ellipse 20" cx="4.381" cy="4.381" r="4.381" transform="translate(413.904 191.948)" fill="#3f3d56"/>
  <path id="Tracé_126" data-name="Tracé 126" d="M721.709,372.876a2.971,2.971,0,1,1,0,5.942H675.634a2.971,2.971,0,0,1,0-5.942h46.075m0-.728H675.634a3.7,3.7,0,1,0,0,7.4h46.075a3.7,3.7,0,1,0,0-7.4Z" transform="translate(-233.036 -179.957)" fill="#3f3d56"/>
  <path id="Tracé_127" data-name="Tracé 127" d="M701.915,379.546H667.23a3.7,3.7,0,1,1,0-7.4h34.685a3.7,3.7,0,0,1,0,7.4Z" transform="translate(-231.422 -179.957)" fill="#f6a456"/>
  <circle id="Ellipse_21" data-name="Ellipse 21" cx="4.381" cy="4.381" r="4.381" transform="translate(413.904 210.139)" fill="#3f3d56"/>
  <path id="Tracé_128" data-name="Tracé 128" d="M721.709,395.391a2.971,2.971,0,1,1,0,5.942H675.634a2.971,2.971,0,0,1,0-5.942h46.075m0-.728H675.634a3.7,3.7,0,1,0,0,7.4h46.075a3.7,3.7,0,1,0,0-7.4Z" transform="translate(-233.036 -184.28)" fill="#3f3d56"/>
  <path id="Tracé_129" data-name="Tracé 129" d="M715.013,402.061H667.23a3.7,3.7,0,1,1,0-7.4h47.783a3.7,3.7,0,1,1,0,7.4Z" transform="translate(-231.422 -184.28)" fill="#4b8bff"/>
  <circle id="Ellipse_22" data-name="Ellipse 22" cx="4.381" cy="4.381" r="4.381" transform="translate(413.904 228.331)" fill="#3f3d56"/>
  <path id="Tracé_130" data-name="Tracé 130" d="M721.709,417.906a2.971,2.971,0,0,1,0,5.942H675.634a2.971,2.971,0,0,1,0-5.942h46.075m0-.728H675.634a3.7,3.7,0,1,0,0,7.4h46.075a3.7,3.7,0,1,0,0-7.4Z" transform="translate(-233.036 -188.604)" fill="#3f3d56"/>
  <path id="Tracé_131" data-name="Tracé 131" d="M686.634,424.576h-19.4a3.7,3.7,0,1,1,0-7.4h19.4a3.7,3.7,0,0,1,0,7.4Z" transform="translate(-231.422 -188.604)" fill="#3a6fd1"/>
  <rect id="Rectangle_73" data-name="Rectangle 73" width="327.306" height="167.744" transform="translate(41.359 82.016)" fill="#f2f2f2"/>
  <rect id="Rectangle_74" data-name="Rectangle 74" width="305.485" height="151.074" transform="translate(52.269 90.351)" fill="#fff"/>
  <path id="Tracé_132" data-name="Tracé 132" d="M471.523,378.859H248.83a.7.7,0,0,1-.7-.7V271.425a.7.7,0,0,1,1.394,0v106.04h222a.7.7,0,1,1,0,1.394Z" transform="translate(-151.655 -160.482)" fill="#3f3d56"/>
  <path id="Tracé_133" data-name="Tracé 133" d="M302.578,387.45H282.323a2.071,2.071,0,0,1-2.069-2.069V357.46a2.071,2.071,0,0,1,2.069-2.069h20.255a2.071,2.071,0,0,1,2.069,2.069v27.921A2.071,2.071,0,0,1,302.578,387.45Z" transform="translate(-157.823 -176.739)" fill="url(#linear-gradient)"/>
  <path id="Tracé_134" data-name="Tracé 134" d="M348.294,381.156H328.039a2.071,2.071,0,0,1-2.069-2.069v-54.4a2.071,2.071,0,0,1,2.069-2.069h20.255a2.071,2.071,0,0,1,2.069,2.069v54.4A2.071,2.071,0,0,1,348.294,381.156Z" transform="translate(-166.602 -170.445)" fill="url(#linear-gradient)"/>
  <path id="Tracé_135" data-name="Tracé 135" d="M394.009,387.45H373.755a2.071,2.071,0,0,1-2.069-2.069V357.46a2.071,2.071,0,0,1,2.069-2.069h20.255a2.071,2.071,0,0,1,2.069,2.069v27.921a2.071,2.071,0,0,1-2.069,2.069Z" transform="translate(-175.38 -176.739)" fill="url(#linear-gradient)"/>
  <path id="Tracé_136" data-name="Tracé 136" d="M439.725,378.671H419.47A2.026,2.026,0,0,1,417.4,376.7V311.65a2.026,2.026,0,0,1,2.069-1.975h20.255a2.026,2.026,0,0,1,2.069,1.975V376.7a2.026,2.026,0,0,1-2.069,1.975Z" transform="translate(-184.159 -167.96)" fill="url(#linear-gradient)"/>
  <path id="Tracé_137" data-name="Tracé 137" d="M485.441,374.2H465.186a2.071,2.071,0,0,1-2.069-2.069V288.455a2.071,2.071,0,0,1,2.069-2.069h20.255a2.071,2.071,0,0,1,2.069,2.069v83.675A2.071,2.071,0,0,1,485.441,374.2Z" transform="translate(-192.937 -163.488)" fill="url(#linear-gradient)"/>
  <circle id="Ellipse_23" data-name="Ellipse 23" cx="4.182" cy="4.182" r="4.182" transform="translate(130.446 161.926)" fill="#3f3d56"/>
  <circle id="Ellipse_24" data-name="Ellipse 24" cx="4.182" cy="4.182" r="4.182" transform="translate(167.383 134.746)" fill="#3f3d56"/>
  <circle id="Ellipse_25" data-name="Ellipse 25" cx="4.182" cy="4.182" r="4.182" transform="translate(204.32 161.926)" fill="#3f3d56"/>
  <circle id="Ellipse_26" data-name="Ellipse 26" cx="4.182" cy="4.182" r="4.182" transform="translate(241.257 121.504)" fill="#3f3d56"/>
  <circle id="Ellipse_27" data-name="Ellipse 27" cx="4.182" cy="4.182" r="4.182" transform="translate(278.194 106.172)" fill="#3f3d56"/>
  <path id="Tracé_138" data-name="Tracé 138" d="M240.486,193.224l-37.025-27.732-36.52,27.353-.835-1.115,37.355-27.98,36.849,27.6,36.618-40.072.146-.06,36.937-14.882.521,1.293-36.79,14.823Z" transform="translate(-31.896 -26.18)" fill="#3f3d56"/>
</svg>
