<svg xmlns="http://www.w3.org/2000/svg" width="706" height="548.211" viewBox="0 0 706 548.211">
  <g id="Groupe_231" data-name="Groupe 231" transform="translate(-54.685 -114.863)">
    <path id="Tracé_27" data-name="Tracé 27" d="M952.426,740.384l.775-17.42a56.263,56.263,0,0,1,26.242-6.643c-12.6,10.3-11.029,30.168-19.574,44.025a33.841,33.841,0,0,1-24.816,15.639l-10.547,6.458a56.708,56.708,0,0,1,11.952-45.952,54.772,54.772,0,0,1,10.067-9.354C949.051,733.8,952.426,740.384,952.426,740.384Z" transform="translate(-218.758 -119.369)" fill="#3ebee6"/>
    <path id="Tracé_28" data-name="Tracé 28" d="M381.483,720.9l-25.452-7.706a85.8,85.8,0,0,1,.067-41.284c10.481,22.507,40.43,27.661,57.69,45.508a51.611,51.611,0,0,1,13.765,42.565L433.123,778a86.484,86.484,0,0,1-63.409-34.971,83.538,83.538,0,0,1-10.032-18.4C370.478,723.407,381.483,720.9,381.483,720.9Z" transform="translate(-213.697 -118.975)" fill="#3ebee6"/>
    <path id="Tracé_29" data-name="Tracé 29" d="M927.076,777.659a2.02,2.02,0,0,1-.585,1.407,1.97,1.97,0,0,1-1.4.575h-7.969a1.975,1.975,0,0,1-1.982-1.982V536.677c0-5.312-1.784-9.624-3.974-9.634H314.028c-2.2.01-3.974,4.321-3.984,9.634v239.5a1.988,1.988,0,0,1-1.794,1.972c-1.606.159-3.211.3-4.807.426-.04,0-.079.01-.119.01-.872.079-1.744.139-2.617.208h-.01c-.456-.823-.892-1.665-1.338-2.508a2.069,2.069,0,0,1-.218-.922V524.179c0-1.467.059-2.944.159-4.4a56.348,56.348,0,0,1,.743-5.967c1.675-9.208,5.461-15.442,9.763-15.461H915.381a4.641,4.641,0,0,1,1.824.386,7.11,7.11,0,0,1,2.25,1.576,13.951,13.951,0,0,1,2.21,3.023c2.121,3.736,3.637,9.307,4.173,15.789,0,.059.01.119.01.178.139,1.606.208,3.241.2,4.876l.139,21.24.089,12.667.268,39.744.1,14.114Z" transform="translate(-213.214 -117.434)" fill="#959595"/>
    <path id="Tracé_31" data-name="Tracé 31" d="M643.146,427.312h-48.4a2.583,2.583,0,0,0-2.579,2.585v76.465h53.569V429.9a2.584,2.584,0,0,0-2.585-2.585Zm-24.039,43.447a5.743,5.743,0,0,1-5.716-5.716v-8.82a5.716,5.716,0,0,1,11.432,0v8.82a5.743,5.743,0,0,1-5.716,5.716Z" transform="translate(-215.816 -116.803)" fill="#2f2e41"/>
    <path id="Tracé_32" data-name="Tracé 32" d="M722.561,306.911H515.65a6.717,6.717,0,0,0-6.706,6.706V453.241a6.712,6.712,0,0,0,6.706,6.706H722.561a6.713,6.713,0,0,0,6.706-6.706V313.617a6.717,6.717,0,0,0-6.706-6.706Z" transform="translate(-215.077 -115.734)" fill="#3f3d56"/>
    <path id="Tracé_33" data-name="Tracé 33" d="M720.873,311.8H517.418a3.594,3.594,0,0,0-3.586,3.594V451.554a3.593,3.593,0,0,0,3.586,3.586H720.873a3.593,3.593,0,0,0,3.586-3.586V315.39a3.594,3.594,0,0,0-3.586-3.594Z" transform="translate(-215.12 -115.778)" fill="#fff"/>
    <path id="Tracé_34" data-name="Tracé 34" d="M591.995,504.6v7.377a1.445,1.445,0,0,0,1.442,1.442h51.017a1.449,1.449,0,0,0,1.442-1.442V504.6Z" transform="translate(-215.814 -117.489)" fill="#3f3d56"/>
    <path id="Tracé_35" data-name="Tracé 35" d="M681.643,515.972H560.6a2.227,2.227,0,0,1-2.179-2.685l1.878-8.92a2.236,2.236,0,0,1,2.179-1.768H679.765a2.236,2.236,0,0,1,2.179,1.768l1.878,8.92a2.227,2.227,0,0,1-2.179,2.685Z" transform="translate(-215.516 -117.472)" fill="#2f2e41"/>
    <rect id="Rectangle_33" data-name="Rectangle 33" width="3.728" height="2.237" rx="0.488" transform="translate(347.82 386.733)" fill="#3f3d56"/>
    <rect id="Rectangle_34" data-name="Rectangle 34" width="3.728" height="2.237" rx="0.488" transform="translate(355.276 386.733)" fill="#3f3d56"/>
    <rect id="Rectangle_35" data-name="Rectangle 35" width="3.728" height="2.237" rx="0.488" transform="translate(362.732 386.733)" fill="#3f3d56"/>
    <rect id="Rectangle_36" data-name="Rectangle 36" width="3.728" height="2.237" rx="0.488" transform="translate(370.188 386.733)" fill="#3f3d56"/>
    <rect id="Rectangle_37" data-name="Rectangle 37" width="3.728" height="2.237" rx="0.488" transform="translate(377.644 386.733)" fill="#3f3d56"/>
    <rect id="Rectangle_38" data-name="Rectangle 38" width="3.728" height="2.237" rx="0.488" transform="translate(385.101 386.733)" fill="#3f3d56"/>
    <rect id="Rectangle_39" data-name="Rectangle 39" width="3.728" height="2.237" rx="0.488" transform="translate(392.557 386.733)" fill="#3f3d56"/>
    <rect id="Rectangle_40" data-name="Rectangle 40" width="3.728" height="2.237" rx="0.488" transform="translate(400.013 386.733)" fill="#3f3d56"/>
    <rect id="Rectangle_41" data-name="Rectangle 41" width="3.728" height="2.237" rx="0.488" transform="translate(407.469 386.733)" fill="#3f3d56"/>
    <rect id="Rectangle_42" data-name="Rectangle 42" width="3.728" height="2.237" rx="0.488" transform="translate(414.925 386.733)" fill="#3f3d56"/>
    <rect id="Rectangle_43" data-name="Rectangle 43" width="3.728" height="2.237" rx="0.488" transform="translate(422.381 386.733)" fill="#3f3d56"/>
    <rect id="Rectangle_44" data-name="Rectangle 44" width="3.728" height="2.237" rx="0.488" transform="translate(429.837 386.733)" fill="#3f3d56"/>
    <rect id="Rectangle_45" data-name="Rectangle 45" width="3.728" height="2.237" rx="0.488" transform="translate(437.293 386.733)" fill="#3f3d56"/>
    <rect id="Rectangle_46" data-name="Rectangle 46" width="3.728" height="2.237" rx="0.488" transform="translate(444.749 386.733)" fill="#3f3d56"/>
    <rect id="Rectangle_47" data-name="Rectangle 47" width="3.728" height="2.237" rx="0.488" transform="translate(452.206 386.733)" fill="#3f3d56"/>
    <rect id="Rectangle_48" data-name="Rectangle 48" width="3.728" height="2.237" rx="0.488" transform="translate(459.662 386.733)" fill="#3f3d56"/>
    <rect id="Rectangle_49" data-name="Rectangle 49" width="3.728" height="2.237" rx="0.488" transform="translate(347.732 390.461)" fill="#3f3d56"/>
    <rect id="Rectangle_50" data-name="Rectangle 50" width="3.728" height="2.237" rx="0.488" transform="translate(355.188 390.461)" fill="#3f3d56"/>
    <rect id="Rectangle_51" data-name="Rectangle 51" width="3.728" height="2.237" rx="0.488" transform="translate(362.644 390.461)" fill="#3f3d56"/>
    <rect id="Rectangle_52" data-name="Rectangle 52" width="3.728" height="2.237" rx="0.488" transform="translate(370.1 390.461)" fill="#3f3d56"/>
    <rect id="Rectangle_53" data-name="Rectangle 53" width="3.728" height="2.237" rx="0.488" transform="translate(377.556 390.461)" fill="#3f3d56"/>
    <rect id="Rectangle_54" data-name="Rectangle 54" width="3.728" height="2.237" rx="0.488" transform="translate(385.012 390.461)" fill="#3f3d56"/>
    <rect id="Rectangle_55" data-name="Rectangle 55" width="3.728" height="2.237" rx="0.488" transform="translate(392.469 390.461)" fill="#3f3d56"/>
    <rect id="Rectangle_56" data-name="Rectangle 56" width="3.728" height="2.237" rx="0.488" transform="translate(399.925 390.461)" fill="#3f3d56"/>
    <rect id="Rectangle_57" data-name="Rectangle 57" width="3.728" height="2.237" rx="0.488" transform="translate(407.381 390.461)" fill="#3f3d56"/>
    <rect id="Rectangle_58" data-name="Rectangle 58" width="3.728" height="2.237" rx="0.488" transform="translate(414.837 390.461)" fill="#3f3d56"/>
    <rect id="Rectangle_59" data-name="Rectangle 59" width="3.728" height="2.237" rx="0.488" transform="translate(422.293 390.461)" fill="#3f3d56"/>
    <rect id="Rectangle_60" data-name="Rectangle 60" width="3.728" height="2.237" rx="0.488" transform="translate(429.749 390.461)" fill="#3f3d56"/>
    <rect id="Rectangle_61" data-name="Rectangle 61" width="3.728" height="2.237" rx="0.488" transform="translate(437.205 390.461)" fill="#3f3d56"/>
    <rect id="Rectangle_62" data-name="Rectangle 62" width="3.728" height="2.237" rx="0.488" transform="translate(444.661 390.461)" fill="#3f3d56"/>
    <rect id="Rectangle_63" data-name="Rectangle 63" width="3.728" height="2.237" rx="0.488" transform="translate(452.118 390.461)" fill="#3f3d56"/>
    <rect id="Rectangle_64" data-name="Rectangle 64" width="3.728" height="2.237" rx="0.488" transform="translate(459.574 390.461)" fill="#3f3d56"/>
    <rect id="Rectangle_65" data-name="Rectangle 65" width="29.824" height="2.237" rx="0.488" transform="translate(383.521 394.934)" fill="#3f3d56"/>
    <path id="Tracé_36" data-name="Tracé 36" d="M710.7,330.713H520.328a.757.757,0,0,1,0-1.514H710.7a.757.757,0,0,1,0,1.514Z" transform="translate(-215.171 -115.932)" fill="#cacaca"/>
    <ellipse id="Ellipse_1" data-name="Ellipse 1" cx="4.437" cy="4.536" rx="4.437" ry="4.536" transform="translate(313.68 200.33)" fill="#3f3d56"/>
    <ellipse id="Ellipse_2" data-name="Ellipse 2" cx="4.437" cy="4.536" rx="4.437" ry="4.536" transform="translate(329.006 200.33)" fill="#3f3d56"/>
    <ellipse id="Ellipse_3" data-name="Ellipse 3" cx="4.437" cy="4.536" rx="4.437" ry="4.536" transform="translate(344.333 200.33)" fill="#3f3d56"/>
    <path id="Tracé_37" data-name="Tracé 37" d="M703,317.28H692.11a.824.824,0,1,0,0,1.649H703a.824.824,0,1,0,0-1.649Z" transform="translate(-216.696 -115.826)" fill="#3f3d56"/>
    <path id="Tracé_38" data-name="Tracé 38" d="M703,320.4H692.11a.824.824,0,0,0,0,1.649H703a.824.824,0,1,0,0-1.649Z" transform="translate(-216.696 -115.854)" fill="#3f3d56"/>
    <path id="Tracé_39" data-name="Tracé 39" d="M703,323.521H692.11a.824.824,0,1,0,0,1.649H703a.824.824,0,1,0,0-1.649Z" transform="translate(-216.696 -115.882)" fill="#3f3d56"/>
    <rect id="Rectangle_66" data-name="Rectangle 66" width="30.258" height="6.47" rx="3.235" transform="translate(388.527 259.009)" fill="#f6a456"/>
    <rect id="Rectangle_67" data-name="Rectangle 67" width="60.993" height="6.47" rx="3.235" transform="translate(373.16 271.949)" fill="#e6e6e6"/>
    <rect id="Rectangle_68" data-name="Rectangle 68" width="60.993" height="6.47" rx="3.235" transform="translate(373.16 284.89)" fill="#e6e6e6"/>
    <path id="Tracé_40" data-name="Tracé 40" d="M521.607,525.911H462.14a7.929,7.929,0,0,0,0,15.858h21.8v61.45H499.8v-61.45h21.8a7.929,7.929,0,0,0,0-15.858Z" transform="translate(-214.591 -117.679)" fill="#3f3d56"/>
    <path id="Tracé_41" data-name="Tracé 41" d="M559.2,635.877H400.142a64.23,64.23,0,0,1-63.349-55.142l-5.63-20.71a464.915,464.915,0,0,0-52.709-121.812c-10.652-17.3-16.134-34.044-3.682-50.166l.313-.406c9.988-13,59.7-15.814,75.906-16.361q.96-.033,1.928-.032h98.933q.968,0,1.928.032a48.413,48.413,0,0,1,41.861,26.682,49.884,49.884,0,0,1-2.831,51.072c-34.752,52.2-45.392,84.937-34.5,106.134,10.537,20.5,42.837,30.987,101.648,32.99,15.8.538,23.058,12.845,23.109,24.051.049,10.917-6.924,22.97-22.353,23.636Q559.962,635.877,559.2,635.877Z" transform="translate(-212.934 -116.305)" fill="#3f3d56"/>
    <path id="Tracé_42" data-name="Tracé 42" d="M428.521,779.407h59.467a7.929,7.929,0,1,0,0-15.858h-21.8v-133.8H450.325v133.8h-21.8a7.929,7.929,0,1,0,0,15.858Z" transform="translate(-214.292 -118.6)" fill="#3f3d56"/>
    <path id="Tracé_43" data-name="Tracé 43" d="M423.243,375.979l1.247,7.575c.59,3.673,2.725,29.62,1.143,32.716-.139-5.78-10.9-14.867-17.876-12.792l-10.944,2.432-6.793,1.511-5.529,1.212-16.065,3.51c-.028-.186-.048-.385-.076-.571-.038-.235-.076-.47-.124-.7a13.967,13.967,0,0,0-1.615-4.283,10.685,10.685,0,0,1-1.529,5.037.863.863,0,0,0-.065.125,12.627,12.627,0,0,1-.943,1.326.215.215,0,0,0-.043.039s-3.3-52.619-2.955-53.1c.253-.345.508-.681.775-1.008s.522-.663.8-.993a.432.432,0,0,0,.089-.109,35.673,35.673,0,0,1,2.457-2.627c.254-.244.517-.49.78-.736a36.613,36.613,0,0,1,14.052-8.106c.59-.181,1.2-.347,1.827-.515s1.243-.3,1.874-.434l.214-.044c.3-.062.614-.115.917-.167.381-.068.763-.126,1.138-.172a36.907,36.907,0,0,1,14.584.82c.01,0,.012.008.021.006a37.608,37.608,0,0,1,11.175,4.977c5.93,3.916,8.239,10.3,9.878,17.473C422.23,370.834,422.714,373.4,423.243,375.979Z" transform="translate(-213.764 -116.07)" fill="#2f2e41"/>
    <path id="Tracé_44" data-name="Tracé 44" d="M269.963,610.911l10.244,5.565,27.119-37.5-15.121-8.212Z" transform="translate(-1.911 -4.047)" fill="#ffb6b6"/>
    <path id="Tracé_45" data-name="Tracé 45" d="M487.758,712.842l18.6,5.824-2.96,7.791,12.753,18.509a5.206,5.206,0,0,1-6.136,7.821l-21.65-8.225-.8-9.124-4.385,7.153-8.163-3.1Z" transform="translate(-214.776 -119.338)" fill="#2f2e41"/>
    <path id="Tracé_46" data-name="Tracé 46" d="M540.534,556.61a11.511,11.511,0,0,1-14.212-10.468l-87.379-31.435,16.036-13.955,82.935,33.021a11.574,11.574,0,0,1,2.62,22.836Z" transform="translate(-214.455 -117.455)" fill="#ffb6b6"/>
    <path id="Tracé_47" data-name="Tracé 47" d="M414.17,436.26s-14.717.324-16.025,17.126,30.8,58.359,35.778,65.212,60.237,15.288,60.237,15.288l18.786-13.638c-19.739-12.79-37.754-22.6-49.844-22.157Z" transform="translate(-214.093 -116.883)" fill="#f7ec6f"/>
    <path id="Tracé_48" data-name="Tracé 48" d="M396.1,510.963l3.586,15.408s.035,14.208,2.551,16.827c2.5,2.608,57.441-2.628,57.441-2.628s-5.825-22.895-5.748-40.218Z" transform="translate(-214.075 -117.452)" fill="#ffb6b6"/>
    <path id="Tracé_49" data-name="Tracé 49" d="M512.172,708.338l-19.822-10.9c-.377-25.794,15.138-60.7,33.539-97.261-41.154,7.078-79.98,9.345-113.562.783A21.707,21.707,0,0,1,396.8,574.735q.2-.815.453-1.613c4.019-12.263-4.993-19.949,3.3-33.437,21.8-7.446,42.511-9.548,61.45-2.973l11.866,26.236,58.816-7.611a21.688,21.688,0,0,1,24.128,19.122q.118.958.155,1.923C545.073,632.137,531.738,682.3,512.172,708.338Z" transform="translate(-214.075 -117.74)" fill="#2f2e41"/>
    <circle id="Ellipse_4" data-name="Ellipse 4" cx="24.585" cy="24.585" r="24.585" transform="translate(150.811 243.792) rotate(-11.564)" fill="#ffb6b6"/>
    <path id="Tracé_50" data-name="Tracé 50" d="M387.93,412.623l22.658-1.338a4.6,4.6,0,0,1,4.523,2.838l6.4,15.523,26.612,22s10.536,13.408,10.561,30.724,3.738,57.4,3.738,57.4-15.377-21.645-24.868-15.888c-1.615.979-2.183,2.982-3.874,3.994-.844.5-2.793.014-3.645.52-13.079,7.764-26.718,15.349-27.993,14.019-2.5-2.611-5.538-15.955-5.538-15.955l-20.74-76.2A28.224,28.224,0,0,1,379.78,426.5c1.449-2.04,2.967-3.558,4.378-3.809C387.326,422.014,385.641,414.914,387.93,412.623Z" transform="translate(-213.885 -116.661)" fill="#f7ec6f"/>
    <path id="Tracé_51" data-name="Tracé 51" d="M369.348,643.414l9.564-6.65-21.667-40.878L343.13,605.7Z" transform="translate(-2.561 -4.27)" fill="#ffb6b6"/>
    <path id="Tracé_52" data-name="Tracé 52" d="M582.364,729.52l-14.989,13.4c-23.834-26.558-41.852-63.8-57.122-106.1-40.007-11.717-70.178-30.614-96.517-53.051-8.935-7.561-15.634-17.274-8.013-26.484q.534-.646,1.116-1.249c9-9.247,31.816-7.485,45.18-15.957l29.854,31.911-1.878,8.555,56.075,18.995A21.658,21.658,0,0,1,549.287,627.3q-.315.912-.707,1.8Z" transform="translate(-214.131 -117.804)" fill="#2f2e41"/>
    <path id="Tracé_53" data-name="Tracé 53" d="M576.891,756.063l15.31-12.057,4.757,6.844,22.477-.068a5.206,5.206,0,0,1,2.988,9.481l-19.017,13.219-7.983-4.491,3.426,7.659-7.17,4.984Z" transform="translate(-215.68 -119.615)" fill="#2f2e41"/>
    <path id="Tracé_54" data-name="Tracé 54" d="M421.3,605.544a11.511,11.511,0,0,1-5.144-16.885l-51.295-77.408,21.2-1.611,46.783,76.026A11.574,11.574,0,0,1,421.3,605.544Z" transform="translate(-213.798 -117.534)" fill="#ffb6b6"/>
    <path id="Tracé_55" data-name="Tracé 55" d="M391.751,433.516s-12-8.531-23.082,4.161-10.161,65.2-10.265,73.671c-.033,2.652,3.8,8.373,9.072,14.982,2.368,2.967,5.028,6.113,7.761,9.24,1.581,1.81.219,5.577,1.807,7.335s6.109,1.491,7.612,3.115c7.13,7.706,12.923,13.573,12.923,13.573l23.212.285c.262-17.256-11.555-32.658-26.736-47.545Z" transform="translate(-213.74 -116.833)" fill="#f7ec6f"/>
    <path id="Tracé_56" data-name="Tracé 56" d="M424.241,367.083c-.91.449-1.792.883-2.659,1.293a82.4,82.4,0,0,1-10.759,4.377,13.544,13.544,0,0,0-2.753-4.505,10.764,10.764,0,0,1-.456,5.384,30.431,30.431,0,0,1-16.887-.652c3.567,6.6,6.2,20.522,6.011,32.934-.084,6.563-.972,12.7-2.912,17.116l-2.493-7.583a47.229,47.229,0,0,0-1.388-8.022c-1.671-7.377-3.232-2.445-5.529,1.212l-16.065,3.51c-.028-.186-.048-.385-.076-.571-.038-.235-.076-.47-.124-.7a13.966,13.966,0,0,0-1.615-4.283,10.684,10.684,0,0,1-1.529,5.037.862.862,0,0,0-.065.125,12.628,12.628,0,0,1-.943,1.326.212.212,0,0,0-.043.039c-10.372,1.388-17.643-52.1-2.953-53.095.427-.029.508-.681.773-1.018s.522-.663.8-.993a.434.434,0,0,0,.089-.109c.785-.909,1.6-1.784,2.457-2.627.254-.244.517-.49.78-.736a37.165,37.165,0,0,1,14.054-8.1c.59-.181,1.2-.357,1.825-.525s1.243-.3,1.874-.434l.214-.044c.3-.062.614-.115.917-.167.381-.068.763-.126,1.138-.172a9.31,9.31,0,0,1,3.5,3.067l10.263-2.1q.408-.083.822-.138l.019,0C413.342,343.779,421.581,354.081,424.241,367.083Z" transform="translate(-213.69 -116.073)" fill="#2f2e41"/>
    <path id="Tracé_57" data-name="Tracé 57" d="M368.318,357.573c-2.2,1.586-4.51,3.22-7.191,3.613s-5.821-.9-6.563-3.51c-.907-3.187,1.971-6.089,4.557-8.161l8.2-6.568a19.833,19.833,0,0,1,5.029-3.252,6.7,6.7,0,0,1,5.8.194,6.231,6.231,0,0,1,2.739,5.425,11.583,11.583,0,0,1-2.031,5.943,20.9,20.9,0,0,1-13.57,9.224" transform="translate(-213.705 -116.02)" fill="#2f2e41"/>
    <path id="Tracé_58" data-name="Tracé 58" d="M430.607,529.911H371.14a7.929,7.929,0,1,0,0,15.858h21.8v61.45H408.8v-61.45h21.8a7.929,7.929,0,1,0,0-15.858Z" transform="translate(-213.783 -117.714)" fill="#3f3d56"/>
    <path id="Tracé_60" data-name="Tracé 60" d="M567.621,535.442l9.68,10.549,45.3-32.318L608.312,498.1Z" transform="translate(-4.554 -3.402)" fill="#a0616a"/>
    <path id="Tracé_61" data-name="Tracé 61" d="M800.478,665.7v-.01l-.981-10.536-.446-.208-2.607-1.239-12.3-5.818-.258-.278-2.468-2.7-13.668,12.548,18.514,20.179,12.7,13.836.426-.4a17.951,17.951,0,0,0,1.09-25.383Z" transform="translate(-217.374 -118.735)" fill="#2f2e41"/>
    <path id="Tracé_62" data-name="Tracé 62" d="M517.018,641.487l13.7,4.162,22.572-50.862-20.22-6.142Z" transform="translate(-4.104 -4.206)" fill="#a0616a"/>
    <path id="Tracé_63" data-name="Tracé 63" d="M765.356,768.346a17.8,17.8,0,0,0-10.625-8.722l-6.214-8.573-.486.04L731.608,752.6l-.367-.109-3.489-1.06-5.392,17.751,44.174,13.42.169-.565a17.893,17.893,0,0,0-1.348-13.687Z" transform="translate(-216.971 -119.677)" fill="#2f2e41"/>
    <path id="Path_17" data-name="Path 17" d="M842.986,488.318s87.468,84.451,32.172,110.591H858.067s-5.136-18.247-16.894-33.634c-1.615-2.113-7.664-1.684-9.344-3.743-10.257-12.574-21.378-23.374-29.058-22.945l1.837,58.35,2.973,20.814c1.561,10.76-42.5,104.705-42.5,104.705l-27.7-10.885s28.855-77.378,29.193-88.533L743.455,500.383Z" transform="translate(-217.105 -117.345)" fill="#2f2e41"/>
    <path id="Tracé_64" data-name="Tracé 64" d="M850.261,490.881a5.212,5.212,0,0,1-1.7,1.546,12.041,12.041,0,0,1-3.578,1.328c-19.694,4.47-84.027,13.737-100.728,9.317-2.052-.535-3.39-1.288-3.826-2.28-1.4-3.132-1.219-16.363-.4-32.34.149-2.993,3.449-6.234,3.647-9.366.139-2.349-2.825-4.559-2.666-6.948,1.09-16.155,2.5-32.618,3.439-43.025.595-6.69,1-10.873,1-10.873l-10.159-64.056.476-.783.535-.268,32.757-16.215,1.784-4.559a7.055,7.055,0,0,1,6.531-4.47l21.577-.089a7.031,7.031,0,0,1,5.739,2.914l5.848,8.1,38.654,24.778-.149.456-18.138,55.2-.089,4.3v.01l-.674,34.59,1.873,4.688-2.111,7.691s.971,8.989,6.175,15.67c4.718,6.066,10.724,12.389,13.44,17.523v.01C851.024,486.56,851.53,489.017,850.261,490.881Z" transform="translate(-217.086 -115.742)" fill="#366db4"/>
    <path id="Path_18" data-name="Path 18" d="M879.981,594.71l-4.675,5.908s-43,30.082-44.475,32.893l-6.8,6.43-16.442-17.576,8.551-10.717a67.123,67.123,0,0,1,25.749-19.713h0L855,580.308Z" transform="translate(-217.728 -118.161)" fill="#2f2e41"/>
    <path id="Tracé_65" data-name="Tracé 65" d="M852.975,508.658l-7.83-75.791-2.067-31.193,21.916-3.963s-.868,22.3,2,34.888c2.833,12.418.376,74.4.2,76.052a10.663,10.663,0,1,1-14.223.007Z" transform="translate(-218.043 -116.54)" fill="#a0616a"/>
    <path id="Tracé_66" data-name="Tracé 66" d="M874.208,448l-28.17,5.831-2.463-9.82-2.872-3.046-5.737-30.054L826.735,393.3l2.14-60.2,20.906,11.088.026.02c3.2,3.471,5.4,8.439,9.066,13.424,11.547,15.708,12.827,53.877,12.478,74.784-.006.343.339.705.754,1.086a11.591,11.591,0,0,1,2.1,14.5Z" transform="translate(-217.898 -115.967)" fill="#366db4"/>
    <path id="Tracé_67" data-name="Tracé 67" d="M724.2,511.658l7.83-75.791,2.067-31.193L712.18,400.71s.868,22.3-2,34.888c-2.833,12.418-.376,74.4-.2,76.052a10.663,10.663,0,1,0,14.223.007Z" transform="translate(-216.83 -116.567)" fill="#a0616a"/>
    <path id="Tracé_68" data-name="Tracé 68" d="M750.251,396.277l-6.105,13.063-2.131,4.549-5.739,30.051-2.864,3.043-2.468,9.822-1.16-.238-20.913-4.331-6.1-1.259a11.587,11.587,0,0,1,2.1-14.5c.416-.377.763-.743.753-1.09-.347-20.9.932-59.071,12.478-74.78,3.667-4.985,5.867-9.951,9.069-13.42.01-.01.01-.02.02-.02l7.79-12.756.476-.783.535-.268Z" transform="translate(-216.783 -115.969)" fill="#366db4"/>
    <circle id="Ellipse_5" data-name="Ellipse 5" cx="28.708" cy="28.708" r="28.708" transform="translate(541.745 128.499)" fill="#a0616a"/>
    <path id="Tracé_69" data-name="Tracé 69" d="M819.929,259.664c-.1-4.9-.654-11.16-4.083-16.155-2.894-4.2-8.732-7.533-14.173-5.867a5.893,5.893,0,0,0-2.934-5.431c-2.061-1.259-4.539-1.487-6.73-1.695-5.521-.515-11.239-1.051-16.829.01-6.274,1.189-11.408,4.42-14.074,8.871l-.059.139-.545,2.636a2.5,2.5,0,0,1-1.239,1.685,2.459,2.459,0,0,1-2.091.149,2.27,2.27,0,0,0-3.043,2.458l.149,1.051-1.576-.3a2.263,2.263,0,0,0-2.547,3.023l.436,1.2a2.426,2.426,0,0,0-1.734.763,2.217,2.217,0,0,0-.3,2.6,20.628,20.628,0,0,0,7.275,7.314,17.149,17.149,0,0,0,4.331,1.853q.476.134.981.238a102.146,102.146,0,0,0,37.018,1.11,20.969,20.969,0,0,0-.823,7.493c.4,3.162,2.25,5.768,4.728,6.641a9.911,9.911,0,0,0,1.725.416,10.638,10.638,0,0,1,1.655.406,4.82,4.82,0,0,1,1.407,8.246s2.6,2.151,2.924,2.042a6.674,6.674,0,0,0,3.053-2.716C817.778,280.726,820.167,271.25,819.929,259.664Z" transform="translate(-217.201 -115.051)" fill="#2f2e41"/>
  </g>
</svg>
