<svg xmlns="http://www.w3.org/2000/svg" width="31.986" height="31.5" viewBox="0 0 31.986 31.5">
  <g id="Icon_ionic-logo-instagram" data-name="Icon ionic-logo-instagram" transform="translate(-4.5 -4.5)">
    <path id="Tracé_2" data-name="Tracé 2" d="M27.157,7.125a6.705,6.705,0,0,1,4.706,1.928,6.454,6.454,0,0,1,1.957,4.635V26.813a6.5,6.5,0,0,1-1.957,4.635,6.656,6.656,0,0,1-4.706,1.928H13.829a6.705,6.705,0,0,1-4.706-1.928,6.454,6.454,0,0,1-1.957-4.635V13.688A6.5,6.5,0,0,1,9.123,9.053a6.656,6.656,0,0,1,4.706-1.928H27.157m0-2.625H13.829A9.286,9.286,0,0,0,4.5,13.688V26.813A9.286,9.286,0,0,0,13.829,36H27.157a9.286,9.286,0,0,0,9.329-9.187V13.688A9.286,9.286,0,0,0,27.157,4.5Z" fill="#fff"/>
    <path id="Tracé_3" data-name="Tracé 3" d="M25.61,12.97a1.985,1.985,0,1,1,1.985-1.985A1.98,1.98,0,0,1,25.61,12.97Z" transform="translate(3.555 0.744)" fill="#fff"/>
    <path id="Tracé_4" data-name="Tracé 4" d="M19.19,13.9A5.293,5.293,0,1,1,13.9,19.19,5.3,5.3,0,0,1,19.19,13.9m0-2.647a7.94,7.94,0,1,0,7.94,7.94,7.942,7.942,0,0,0-7.94-7.94Z" transform="translate(1.303 1.06)" fill="#fff"/>
  </g>
</svg>
