<svg xmlns="http://www.w3.org/2000/svg" width="27" height="27" viewBox="0 0 27 27">
  <path id="Icon_awesome-pencil-ruler" data-name="Icon awesome-pencil-ruler" d="M5.772,12.869l7.1-7.1L10.542,3.446,7.29,6.7a.418.418,0,0,1-.591,0l-.591-.591a.418.418,0,0,1,0-.591L9.36,2.264,7.586.49a1.673,1.673,0,0,0-2.366,0L.49,5.22a1.673,1.673,0,0,0,0,2.366l5.282,5.283ZM26.257,6.71a2.533,2.533,0,0,0,0-3.582L23.871.741a2.534,2.534,0,0,0-3.583,0L17.861,3.168l5.969,5.969Zm-9.59-2.348L1.006,20.021.017,25.687a1.12,1.12,0,0,0,1.3,1.3l5.666-.993L22.637,10.33Zm9.842,15.052-1.774-1.774-3.253,3.253a.418.418,0,0,1-.591,0L20.3,20.3a.419.419,0,0,1,0-.591l3.253-3.253-2.328-2.328-7.1,7.1,5.284,5.284a1.673,1.673,0,0,0,2.366,0l4.731-4.73a1.673,1.673,0,0,0,0-2.366Z" transform="translate(0 0.001)" fill="#f6a456"/>
</svg>
