<svg xmlns="http://www.w3.org/2000/svg" width="20.769" height="27" viewBox="0 0 20.769 27">
  <path id="Icon_ionic-ios-lock" data-name="Icon ionic-ios-lock" d="M24.923,12.721H23.365V9.69A6.231,6.231,0,1,0,10.9,9.606v3.115H9.346a2.6,2.6,0,0,0-2.6,2.6V27.778a2.6,2.6,0,0,0,2.6,2.6H24.923a2.6,2.6,0,0,0,2.6-2.6V15.317A2.6,2.6,0,0,0,24.923,12.721Zm-6.88,8.1v4.465a.931.931,0,0,1-.863.935.91.91,0,0,1-.954-.909V20.821a2.077,2.077,0,1,1,1.817,0Zm3.5-8.1H12.721V9.606a4.413,4.413,0,0,1,8.827,0Z" transform="translate(-6.75 -3.375)" fill="#f6a456"/>
</svg>
