<svg xmlns="http://www.w3.org/2000/svg" xmlns:xlink="http://www.w3.org/1999/xlink" width="451.09" height="481.582" viewBox="0 0 451.09 481.582">
  <defs>
    <linearGradient id="linear-gradient" x1="0.5" x2="0.5" y2="1" gradientUnits="objectBoundingBox">
      <stop offset="0" stop-color="#4085d6"/>
      <stop offset="1" stop-color="#276dc4"/>
    </linearGradient>
  </defs>
  <path id="Soustraction_75" data-name="Soustraction 75" d="M18843.1,872.966h0c-18.514,0-35.158-3.3-49.475-9.8a90.884,90.884,0,0,1-35.721-28.835,115.594,115.594,0,0,1-17.506-35.706c-4.193-13.833-6.627-29.535-7.238-46.672-1.271-35.664,5.229-77.591,19.316-124.618,28.121-93.875,76.977-94.44,128.7-95.038,44.18-.511,89.863-1.04,126.9-58.736a185.139,185.139,0,0,1,17.063-22.633A169.838,169.838,0,0,1,19044,432.657a166.39,166.39,0,0,1,20.221-14.331,172.681,172.681,0,0,1,21.148-10.8c25.066-10.711,53.705-16.142,85.121-16.142,4.473,0,9.051.113,13.6.335V781.381c-27.709,1.453-69.023,8.853-108.5,35.859a310.19,310.19,0,0,1-32.25,19.678,166.217,166.217,0,0,1-27.5,11.39c-17.916,5.54-36.3,7.7-61.744,10.689-20.5,2.409-46.021,5.406-79.855,11.182A186.089,186.089,0,0,1,18843.1,872.966Z" transform="translate(-18733 -391.384)" fill="url(#linear-gradient)"/>
</svg>
